<svg width="32" height="32" viewBox="0 0 32 32" fill="none" xmlns="http://www.w3.org/2000/svg">
<mask id="path-1-inside-1_8_36" fill="white">
<path d="M25.2913 15.7457C25.8389 15.674 26.3453 16.0601 26.3716 16.6117C26.4808 18.9087 25.9335 21.197 24.7833 23.2042C23.4669 25.5015 21.4334 27.3038 18.9947 28.3348C16.5559 29.3657 13.8463 29.5685 11.2812 28.9121C8.71609 28.2557 6.43703 26.7762 4.7933 24.7004C3.14957 22.6247 2.23187 20.0672 2.18085 17.4199C2.12984 14.7726 2.94832 12.1817 4.51085 10.0441C6.07338 7.90656 8.29374 6.34037 10.8316 5.58558C13.049 4.92611 15.4019 4.91783 17.6127 5.55069C18.1436 5.70269 18.4033 6.28408 18.208 6.80069L14.8723 15.6248C14.6051 16.3317 15.1883 17.0681 15.9375 16.97L25.2913 15.7457Z"/>
</mask>
<path d="M25.2913 15.7457C25.8389 15.674 26.3453 16.0601 26.3716 16.6117C26.4808 18.9087 25.9335 21.197 24.7833 23.2042C23.4669 25.5015 21.4334 27.3038 18.9947 28.3348C16.5559 29.3657 13.8463 29.5685 11.2812 28.9121C8.71609 28.2557 6.43703 26.7762 4.7933 24.7004C3.14957 22.6247 2.23187 20.0672 2.18085 17.4199C2.12984 14.7726 2.94832 12.1817 4.51085 10.0441C6.07338 7.90656 8.29374 6.34037 10.8316 5.58558C13.049 4.92611 15.4019 4.91783 17.6127 5.55069C18.1436 5.70269 18.4033 6.28408 18.208 6.80069L14.8723 15.6248C14.6051 16.3317 15.1883 17.0681 15.9375 16.97L25.2913 15.7457Z" stroke="black" stroke-width="2" mask="url(#path-1-inside-1_8_36)"/>
<mask id="path-2-inside-2_8_36" fill="white">
<path d="M20.5497 5.87167C20.776 5.36788 21.3703 5.13933 21.8537 5.40644C23.2275 6.16557 24.4435 7.18634 25.4312 8.41437C26.4189 9.6424 27.1553 11.0489 27.6022 12.5535C27.7595 13.083 27.4088 13.6145 26.8683 13.7275L17.9211 15.5983C17.1213 15.7656 16.4694 14.9551 16.8042 14.2097L20.5497 5.87167Z"/>
</mask>
<path d="M20.5497 5.87167C20.776 5.36788 21.3703 5.13933 21.8537 5.40644C23.2275 6.16557 24.4435 7.18634 25.4312 8.41437C26.4189 9.6424 27.1553 11.0489 27.6022 12.5535C27.7595 13.083 27.4088 13.6145 26.8683 13.7275L17.9211 15.5983C17.1213 15.7656 16.4694 14.9551 16.8042 14.2097L20.5497 5.87167Z" stroke="black" stroke-width="2" mask="url(#path-2-inside-2_8_36)"/>
</svg>
